<svg version="1.1" viewBox="0.0 0.0 960.0 540.0" fill="none" stroke="none" stroke-linecap="square" stroke-miterlimit="10" xmlns:xlink="http://www.w3.org/1999/xlink" xmlns="http://www.w3.org/2000/svg"><clipPath id="p.0"><path d="m0 0l960.0 0l0 540.0l-960.0 0l0 -540.0z" clip-rule="nonzero"/></clipPath><g clip-path="url(#p.0)"><path fill="#000000" fill-opacity="0.0" d="m0 0l960.0 0l0 540.0l-960.0 0z" fill-rule="evenodd"/><path fill="#000000" fill-opacity="0.0" d="m-53.90026 68.902885l475.1181 0l0 256.9449l-475.1181 0z" fill-rule="evenodd"/><path fill="#865dff" d="m109.67147 267.23474q-16.65625 0 -28.625 -5.484375q-11.953125 -5.484375 -19.5 -15.093735q-7.546875 -9.609375 -11.078125 -22.046875q-3.515625 -12.453125 -3.515625 -26.171875l0 -71.53126l38.21875 0l0 71.53126q0 6.859375 1.359375 13.140625q1.375 6.265625 4.3125 11.171875q2.953125 4.890625 7.546875 7.734375q4.609375 2.84375 11.28125 2.84375q6.859375 0 11.5625 -2.84375q4.703125 -2.84375 7.5468674 -7.828125q2.84375 -5.0 4.203125 -11.265625q1.375 -6.28125 1.375 -12.953125l0 -71.53126l38.21875 0l0 71.53126q0 14.515625 -3.828125 27.0625q-3.8125 12.53125 -11.453125 21.9375q-7.640625 9.406235 -19.5 14.60936q-11.859367 5.1875 -28.124992 5.1875zm123.081184 -69.57811l0 68.406235l-38.21875 0l0 -139.15625l29.796875 0l55.859375 70.75001l0 -70.75001l38.21875 0l0 139.15625l-30.375 0l-55.28125 -68.406235z" fill-rule="nonzero"/><path fill="#000000" fill-opacity="0.0" d="m265.25986 184.08136l728.6614 0l0 256.9449l-728.6614 0z" fill-rule="evenodd"/><path fill="#865dff" d="m448.18243 381.24136q-10.0 0 -18.328125 -3.921875q-8.328125 -3.921875 -14.21875 -10.96875q-5.875 -7.0625 -9.109375 -16.46875q-3.234375 -9.40625 -3.234375 -20.390625q0 -11.5625 3.53125 -21.265625q3.53125 -9.703125 9.890625 -16.953125q6.375 -7.25 15.1875 -11.171875q8.828125 -3.921875 19.421875 -3.921875q10.96875 0 19.484375 4.421875q8.53125 4.40625 13.4375 12.828125l0 -15.28125l32.34375 0l0 93.6875q0 16.0625 -7.84375 28.015625q-7.84375 11.96875 -21.953125 18.53125q-14.109375 6.5625 -32.921875 6.5625q-16.265625 0 -28.515625 -5.09375q-12.25 -5.09375 -21.65625 -14.703125l19.59375 -20.375q5.6875 5.28125 13.625 8.90625q7.9375 3.640625 16.953125 3.640625q6.859375 0 12.640625 -2.5625q5.78125 -2.546875 9.296875 -8.140625q3.53125 -5.578125 3.53125 -14.78125l0 -6.671875q-4.296875 8.046875 -12.828125 12.0625q-8.53125 4.015625 -18.328125 4.015625zm13.328125 -29.40625q2.75 0 5.1875 -0.671875q2.453125 -0.6875 4.609375 -1.953125q2.15625 -1.28125 4.21875 -3.34375q2.0625 -2.0625 3.8125 -4.609375l0 -18.421875q-1.75 -4.703125 -4.890625 -8.125q-3.140625 -3.4375 -6.859375 -5.296875q-3.71875 -1.875 -7.640625 -1.875q-3.921875 0 -7.359375 1.765625q-3.421875 1.765625 -5.96875 5.0q-2.546875 3.234375 -3.921875 7.359375q-1.375 4.109375 -1.375 8.8125q0 4.703125 1.46875 8.625q1.46875 3.921875 4.203125 6.765625q2.75 2.84375 6.46875 4.40625q3.734375 1.5625 8.046875 1.5625zm143.85889 -41.9375q-10.78125 0 -19.609375 2.359375q-8.8125 2.34375 -13.125 7.828125l0 61.15625l-37.234375 0l0 -103.09375l34.109375 0l0 19.59375q5.484375 -10.390625 13.71875 -15.96875q8.234375 -5.59375 17.4375 -5.59375q2.15625 0 3.03125 0q0.890625 0 1.671875 0.203125l0 33.515625zm4.7037964 40.1875q0 -10.390625 5.6875 -18.328125q5.6875 -7.9375 15.78125 -12.4375q10.09375 -4.515625 23.03125 -4.515625q6.078125 0 11.46875 0.984375q5.390625 0.96875 9.296875 2.921875l0 -3.125q0 -7.25 -4.21875 -10.78125q-4.203125 -3.53125 -13.609375 -3.53125q-8.625 0 -16.171875 2.84375q-7.546875 2.84375 -15.78125 8.328125l-10.78125 -23.125q10.390625 -6.671875 21.859375 -9.90625q11.46875 -3.234375 24.59375 -3.234375q24.5 0 37.921875 11.078125q13.4375 11.078125 13.4375 32.828125l0 20.0q0 5.28125 1.5625 7.34375q1.578125 2.0625 5.484375 2.453125l0 31.359375q-4.5 0.984375 -8.515625 1.46875q-4.015625 0.484375 -7.15625 0.484375q-10.0 0 -15.203125 -3.625q-5.1875 -3.625 -6.75 -10.671875l-0.78125 -3.734375q-6.859375 8.828125 -15.875 13.4375q-9.015625 4.59375 -19.21875 4.59375q-10.1875 0 -18.421875 -4.296875q-8.234375 -4.3125 -12.9375 -11.859375q-4.703125 -7.546875 -4.703125 -16.953125zm60.375 2.546875q2.15625 -1.578125 3.515625 -3.4375q1.375 -1.859375 1.375 -3.828125l0 -7.640625q-3.125 -1.171875 -7.15625 -1.953125q-4.015625 -0.78125 -7.140625 -0.78125q-6.671875 0 -11.28125 3.328125q-4.59375 3.328125 -4.59375 8.421875q0 2.75 1.5625 5.0q1.5625 2.25 4.3125 3.53125q2.75 1.265625 6.265625 1.265625q3.34375 0 6.96875 -1.078125q3.625 -1.078125 6.171875 -2.828125zm228.91974 28.609375l-37.234375 0l0 -58.015625q0 -7.640625 -3.046875 -11.0625q-3.03125 -3.4375 -7.34375 -3.4375q-4.3125 0 -9.40625 4.125q-5.09375 4.109375 -7.453125 10.578125l0 57.8125l-37.234375 0l0 -58.015625q0 -7.640625 -3.046875 -11.0625q-3.03125 -3.4375 -7.34375 -3.4375q-4.3125 0 -9.40625 4.125q-5.09375 4.109375 -7.453125 10.578125l0 57.8125l-37.234375 0l0 -103.09375l33.515625 0l0 15.28125q5.484375 -8.421875 15.09375 -12.828125q9.609375 -4.421875 22.734375 -4.421875q12.734375 0 19.203125 5.5q6.46875 5.484375 8.625 12.34375q5.5 -8.421875 15.09375 -13.125q9.609375 -4.71875 21.5625 -4.71875q10.1875 0 16.265625 3.734375q6.078125 3.71875 9.109375 9.609375q3.046875 5.875 4.015625 12.25q0.984375 6.359375 0.984375 11.65625l0 67.8125z" fill-rule="nonzero"/><path fill="#000000" fill-opacity="0.0" d="m455.90552 28.947506l-190.64566 461.13385" fill-rule="evenodd"/><path stroke="#865dff" stroke-width="12.0" stroke-linejoin="round" stroke-linecap="butt" d="m455.90552 28.947506l-190.64566 461.13385" fill-rule="evenodd"/><path fill="#000000" fill-opacity="0.0" d="m479.8609 32.939632l-190.64569 462.14172" fill-rule="evenodd"/><path stroke="#e384ff" stroke-width="12.0" stroke-linejoin="round" stroke-linecap="butt" d="m479.8609 32.939632l-190.64569 462.14172" fill-rule="evenodd"/></g></svg>